<mxfile host="www.draw.io" modified="2019-11-21T04:26:37.312Z" agent="Mozilla/5.0 (Macintosh; Intel Mac OS X 10_14_3) AppleWebKit/537.36 (KHTML, like Gecko) Chrome/78.0.3904.97 Safari/537.36" etag="RBThBRWT8o38KjsEKAjq" version="12.2.7" type="github" pages="2">
  <diagram id="dHQVJWcZbnQs-88rT2f-" name="Page-1">
    <mxGraphModel dx="946" dy="535" grid="1" gridSize="10" guides="1" tooltips="1" connect="1" arrows="1" fold="1" page="1" pageScale="1" pageWidth="827" pageHeight="1169" math="0" shadow="0">
      <root>
        <mxCell id="0"/>
        <mxCell id="1" parent="0"/>
        <mxCell id="4P0GgKVW7XmWCGAA4Uph-1" value="Private Subnet 1 10.0.0.0/19" style="html=1;whiteSpace=wrap;shape=mxgraph.aws4.group;grIcon=mxgraph.aws4.group_security_group;grStroke=0;verticalAlign=top;align=left;spacingLeft=30;fillOpacity=100;fillColor=#E0EFF6;strokeColor=#0E82B8;fontColor=#0E82B8;fontSize=11;spacing=0;strokeOpacity=100;strokeWidth=0;" vertex="1" parent="1">
          <mxGeometry x="240" y="408" width="252" height="180" as="geometry"/>
        </mxCell>
        <mxCell id="4P0GgKVW7XmWCGAA4Uph-2" value="AWS" style="html=1;whiteSpace=wrap;shape=mxgraph.aws4.group;grIcon=mxgraph.aws4.group_aws_cloud_alt;verticalAlign=top;align=left;spacingLeft=30;fillColor=none;fillOpacity=100;fontSize=11;spacing=0;strokeColor=#232f3e;strokeOpacity=100;strokeWidth=1.2;" vertex="1" parent="1">
          <mxGeometry x="108" y="120" width="840" height="588" as="geometry"/>
        </mxCell>
        <mxCell id="4P0GgKVW7XmWCGAA4Uph-3" value="VPC 10.0.0.0/16" style="html=1;whiteSpace=wrap;shape=mxgraph.aws4.group;grIcon=mxgraph.aws4.group_vpc;verticalAlign=top;align=left;spacingLeft=30;fillColor=none;fillOpacity=100;fontColor=#2C8723;fontSize=11;spacing=0;strokeColor=#248814;strokeOpacity=100;strokeWidth=1.2;" vertex="1" parent="1">
          <mxGeometry x="132" y="168" width="792" height="516" as="geometry"/>
        </mxCell>
        <mxCell id="4P0GgKVW7XmWCGAA4Uph-4" value="Public Subnet 1 10.0.128.0/20" style="html=1;whiteSpace=wrap;shape=mxgraph.aws4.group;grIcon=mxgraph.aws4.group_security_group;grStroke=0;verticalAlign=top;align=left;spacingLeft=30;fillOpacity=100;fillColor=#E4EFE3;strokeColor=#2C8723;fontColor=#2C8723;fontSize=11;spacing=0;strokeOpacity=100;strokeWidth=0;" vertex="1" parent="1">
          <mxGeometry x="240" y="192" width="252" height="192" as="geometry"/>
        </mxCell>
        <mxCell id="4P0GgKVW7XmWCGAA4Uph-5" value="Bastion Host" style="html=1;whiteSpace=wrap;shape=mxgraph.aws4.instance2;labelPosition=center;verticalLabelPosition=bottom;align=center;verticalAlign=top;strokeColor=none;fontSize=11;spacing=0;strokeOpacity=100;fillColor=#d86613;strokeWidth=1.2;" vertex="1" parent="1">
          <mxGeometry x="408" y="300" width="48" height="48" as="geometry"/>
        </mxCell>
        <mxCell id="4P0GgKVW7XmWCGAA4Uph-6" value="Availability Zone B" style="html=1;whiteSpace=wrap;verticalAlign=top;fillColor=none;fillOpacity=100;dashed=1;dashPattern=5 5;fontColor=#0E82B8;fontSize=11;spacing=0;strokeColor=#147eba;strokeOpacity=100;strokeWidth=1.2;" vertex="1" parent="1">
          <mxGeometry x="624" y="144" width="276" height="552" as="geometry"/>
        </mxCell>
        <mxCell id="4P0GgKVW7XmWCGAA4Uph-7" value="Availability Zone A" style="html=1;whiteSpace=wrap;verticalAlign=top;fillColor=none;fillOpacity=100;dashed=1;dashPattern=5 5;fontColor=#0E82B8;fontSize=11;spacing=0;strokeColor=#147eba;strokeOpacity=100;strokeWidth=1.2;" vertex="1" parent="1">
          <mxGeometry x="228" y="144" width="276" height="552" as="geometry"/>
        </mxCell>
        <mxCell id="4P0GgKVW7XmWCGAA4Uph-8" value="Public Subnet 2 10.0.144.0/20" style="html=1;whiteSpace=wrap;shape=mxgraph.aws4.group;grIcon=mxgraph.aws4.group_security_group;grStroke=0;verticalAlign=top;align=left;spacingLeft=30;fillOpacity=100;fillColor=#E4EFE3;strokeColor=#2C8723;fontColor=#2C8723;fontSize=11;spacing=0;strokeOpacity=100;strokeWidth=0;" vertex="1" parent="1">
          <mxGeometry x="636" y="192" width="252" height="192" as="geometry"/>
        </mxCell>
        <mxCell id="4P0GgKVW7XmWCGAA4Uph-9" value="Private Subnet 2 10.0.32.0/19" style="html=1;whiteSpace=wrap;shape=mxgraph.aws4.group;grIcon=mxgraph.aws4.group_security_group;grStroke=0;verticalAlign=top;align=left;spacingLeft=30;fillOpacity=100;fillColor=#E0EFF6;strokeColor=#0E82B8;fontColor=#0E82B8;fontSize=11;spacing=0;strokeOpacity=100;strokeWidth=0;" vertex="1" parent="1">
          <mxGeometry x="636" y="408" width="252" height="180" as="geometry"/>
        </mxCell>
        <mxCell id="4P0GgKVW7XmWCGAA4Uph-10" value="" style="html=1;whiteSpace=wrap;fontSize=11;spacing=0;strokeOpacity=100;fillColor=#326ce5;strokeWidth=1.2;" vertex="1" parent="1">
          <mxGeometry x="264" y="474" width="60" height="60" as="geometry"/>
        </mxCell>
        <mxCell id="4P0GgKVW7XmWCGAA4Uph-11" value="Network ELB" style="html=1;whiteSpace=wrap;shape=mxgraph.aws4.resourceIcon;resIcon=mxgraph.aws4.elastic_load_balancing;verticalLabelPosition=bottom;align=center;verticalAlign=top;strokeColor=#ffffff;fontSize=11;spacing=0;strokeOpacity=100;fillColor=#d86613;strokeWidth=1.2;" vertex="1" parent="1">
          <mxGeometry x="543" y="216" width="42" height="42" as="geometry"/>
        </mxCell>
        <mxCell id="4P0GgKVW7XmWCGAA4Uph-12" value="Amazon EKS" style="html=1;whiteSpace=wrap;shape=mxgraph.aws4.resourceIcon;resIcon=mxgraph.aws4.eks;verticalLabelPosition=bottom;align=center;verticalAlign=top;strokeColor=#ffffff;fontSize=11;spacing=0;strokeOpacity=100;fillColor=#d86613;strokeWidth=1.2;" vertex="1" parent="1">
          <mxGeometry x="534" y="600" width="60" height="60" as="geometry"/>
        </mxCell>
        <mxCell id="4P0GgKVW7XmWCGAA4Uph-13" value="" style="html=1;whiteSpace=wrap;fontSize=11;spacing=0;strokeOpacity=100;fillColor=#326ce5;strokeWidth=1.2;" vertex="1" parent="1">
          <mxGeometry x="342" y="474" width="60" height="60" as="geometry"/>
        </mxCell>
        <mxCell id="4P0GgKVW7XmWCGAA4Uph-14" value="" style="html=1;whiteSpace=wrap;fontSize=11;spacing=0;strokeOpacity=100;fillColor=#326ce5;strokeWidth=1.2;" vertex="1" parent="1">
          <mxGeometry x="420" y="474" width="60" height="60" as="geometry"/>
        </mxCell>
        <mxCell id="4P0GgKVW7XmWCGAA4Uph-15" value="" style="html=1;whiteSpace=wrap;fontSize=11;spacing=0;strokeOpacity=100;fillColor=#326ce5;strokeWidth=1.2;" vertex="1" parent="1">
          <mxGeometry x="648" y="474" width="60" height="60" as="geometry"/>
        </mxCell>
        <mxCell id="4P0GgKVW7XmWCGAA4Uph-16" value="" style="html=1;whiteSpace=wrap;fontSize=11;spacing=0;strokeOpacity=100;fillColor=#326ce5;strokeWidth=1.2;" vertex="1" parent="1">
          <mxGeometry x="726" y="474" width="60" height="60" as="geometry"/>
        </mxCell>
        <mxCell id="4P0GgKVW7XmWCGAA4Uph-17" value="" style="html=1;whiteSpace=wrap;fontSize=11;spacing=0;strokeOpacity=100;fillColor=#326ce5;strokeWidth=1.2;" vertex="1" parent="1">
          <mxGeometry x="804" y="474" width="60" height="60" as="geometry"/>
        </mxCell>
        <mxCell id="4P0GgKVW7XmWCGAA4Uph-18" value="" style="html=1;jettySize=18;fontSize=11;strokeColor=#666666;strokeOpacity=100;strokeWidth=0.6;rounded=1;arcSize=24;edgeStyle=orthogonalEdgeStyle;startArrow=none;endArrow=block;endFill=1;exitX=1;exitY=0.5;exitPerimeter=1;entryX=0.5;entryY=1;entryPerimeter=1;" edge="1" parent="1" source="4P0GgKVW7XmWCGAA4Uph-12" target="4P0GgKVW7XmWCGAA4Uph-15">
          <mxGeometry width="100" height="100" relative="1" as="geometry"/>
        </mxCell>
        <mxCell id="4P0GgKVW7XmWCGAA4Uph-19" value="" style="html=1;jettySize=18;fontSize=11;strokeColor=#666666;strokeOpacity=100;strokeWidth=0.6;rounded=1;arcSize=24;edgeStyle=orthogonalEdgeStyle;startArrow=none;endArrow=block;endFill=1;exitX=1;exitY=0.5;exitPerimeter=1;entryX=0.5;entryY=1;entryPerimeter=1;" edge="1" parent="1" source="4P0GgKVW7XmWCGAA4Uph-12" target="4P0GgKVW7XmWCGAA4Uph-16">
          <mxGeometry width="100" height="100" relative="1" as="geometry"/>
        </mxCell>
        <mxCell id="4P0GgKVW7XmWCGAA4Uph-20" value="" style="html=1;jettySize=18;fontSize=11;strokeColor=#666666;strokeOpacity=100;strokeWidth=0.6;rounded=1;arcSize=24;edgeStyle=orthogonalEdgeStyle;startArrow=none;endArrow=block;endFill=1;exitX=1;exitY=0.5;exitPerimeter=1;entryX=0.5;entryY=1;entryPerimeter=1;" edge="1" parent="1" source="4P0GgKVW7XmWCGAA4Uph-12" target="4P0GgKVW7XmWCGAA4Uph-17">
          <mxGeometry width="100" height="100" relative="1" as="geometry"/>
        </mxCell>
        <mxCell id="4P0GgKVW7XmWCGAA4Uph-21" value="" style="html=1;jettySize=18;fontSize=11;strokeColor=#666666;strokeOpacity=100;strokeWidth=0.6;rounded=1;arcSize=24;edgeStyle=orthogonalEdgeStyle;startArrow=none;endArrow=block;endFill=1;exitX=0;exitY=0.5;exitPerimeter=1;entryX=0.5;entryY=1;entryPerimeter=1;" edge="1" parent="1" source="4P0GgKVW7XmWCGAA4Uph-12" target="4P0GgKVW7XmWCGAA4Uph-10">
          <mxGeometry width="100" height="100" relative="1" as="geometry"/>
        </mxCell>
        <mxCell id="4P0GgKVW7XmWCGAA4Uph-22" value="" style="html=1;jettySize=18;fontSize=11;strokeColor=#666666;strokeOpacity=100;strokeWidth=0.6;rounded=1;arcSize=24;edgeStyle=orthogonalEdgeStyle;startArrow=none;endArrow=block;endFill=1;exitX=0;exitY=0.5;exitPerimeter=1;entryX=0.5;entryY=1;entryPerimeter=1;" edge="1" parent="1" source="4P0GgKVW7XmWCGAA4Uph-12" target="4P0GgKVW7XmWCGAA4Uph-13">
          <mxGeometry width="100" height="100" relative="1" as="geometry"/>
        </mxCell>
        <mxCell id="4P0GgKVW7XmWCGAA4Uph-23" value="" style="html=1;jettySize=18;fontSize=11;strokeColor=#666666;strokeOpacity=100;strokeWidth=0.6;rounded=1;arcSize=24;edgeStyle=orthogonalEdgeStyle;startArrow=none;endArrow=block;endFill=1;exitX=0;exitY=0.5;exitPerimeter=1;entryX=0.5;entryY=1;entryPerimeter=1;" edge="1" parent="1" source="4P0GgKVW7XmWCGAA4Uph-12" target="4P0GgKVW7XmWCGAA4Uph-14">
          <mxGeometry width="100" height="100" relative="1" as="geometry"/>
        </mxCell>
        <mxCell id="4P0GgKVW7XmWCGAA4Uph-24" value="Auto Scaling" style="html=1;whiteSpace=wrap;shape=mxgraph.aws4.groupCenter;grIcon=mxgraph.aws4.group_auto_scaling_group;grStroke=1;verticalAlign=top;fillColor=none;fillOpacity=100;fontColor=#D75F17;spacingTop=25;fontSize=11;spacing=0;strokeColor=#d86613;strokeOpacity=100;strokeWidth=1.2;" vertex="1" parent="1">
          <mxGeometry x="384" y="288" width="360" height="84" as="geometry"/>
        </mxCell>
        <mxCell id="4P0GgKVW7XmWCGAA4Uph-25" value="IGW" style="html=1;whiteSpace=wrap;shape=mxgraph.aws4.internet_gateway;labelPosition=center;verticalLabelPosition=bottom;align=center;verticalAlign=top;strokeColor=none;fontSize=11;spacing=0;strokeOpacity=100;fillColor=#693cc5;strokeWidth=1.2;" vertex="1" parent="1">
          <mxGeometry x="540" y="138" width="48" height="48" as="geometry"/>
        </mxCell>
        <mxCell id="4P0GgKVW7XmWCGAA4Uph-26" value="" style="html=1;jettySize=18;fontSize=11;strokeColor=#666666;strokeOpacity=100;strokeWidth=0.6;rounded=1;arcSize=24;edgeStyle=orthogonalEdgeStyle;startArrow=none;endArrow=block;endFill=1;exitX=0.5;exitY=1;exitPerimeter=1;entryX=0.49999999999999806;entryY=0;entryPerimeter=1;" edge="1" parent="1" source="4P0GgKVW7XmWCGAA4Uph-25" target="4P0GgKVW7XmWCGAA4Uph-11">
          <mxGeometry width="100" height="100" relative="1" as="geometry"/>
        </mxCell>
        <mxCell id="4P0GgKVW7XmWCGAA4Uph-27" value="Bastion Host" style="html=1;whiteSpace=wrap;shape=mxgraph.aws4.instance2;labelPosition=center;verticalLabelPosition=bottom;align=center;verticalAlign=top;strokeColor=none;fontSize=11;spacing=0;strokeOpacity=100;fillColor=#d86613;strokeWidth=1.2;" vertex="1" parent="1">
          <mxGeometry x="672" y="300" width="48" height="48" as="geometry"/>
        </mxCell>
        <mxCell id="4P0GgKVW7XmWCGAA4Uph-28" value="NAT gateway" style="html=1;whiteSpace=wrap;shape=mxgraph.aws4.nat_gateway;labelPosition=center;verticalLabelPosition=bottom;align=center;verticalAlign=top;strokeColor=none;fontSize=11;spacing=0;strokeOpacity=100;fillColor=#693cc5;strokeWidth=1.2;" vertex="1" parent="1">
          <mxGeometry x="276" y="300" width="48" height="48" as="geometry"/>
        </mxCell>
        <mxCell id="4P0GgKVW7XmWCGAA4Uph-29" value="NAT gateway" style="html=1;whiteSpace=wrap;shape=mxgraph.aws4.nat_gateway;labelPosition=center;verticalLabelPosition=bottom;align=center;verticalAlign=top;strokeColor=none;fontSize=11;spacing=0;strokeOpacity=100;fillColor=#693cc5;strokeWidth=1.2;" vertex="1" parent="1">
          <mxGeometry x="804" y="300" width="48" height="48" as="geometry"/>
        </mxCell>
        <mxCell id="4P0GgKVW7XmWCGAA4Uph-30" value="" style="html=1;jettySize=18;fontSize=11;strokeColor=#666666;strokeOpacity=100;strokeWidth=0.6;rounded=1;arcSize=24;edgeStyle=orthogonalEdgeStyle;startArrow=none;endArrow=block;endFill=1;exitX=0;exitY=0.5;exitPerimeter=1;entryX=0.5;entryY=0;entryPerimeter=1;" edge="1" parent="1" source="4P0GgKVW7XmWCGAA4Uph-11" target="4P0GgKVW7XmWCGAA4Uph-5">
          <mxGeometry width="100" height="100" relative="1" as="geometry"/>
        </mxCell>
        <mxCell id="4P0GgKVW7XmWCGAA4Uph-31" value="" style="html=1;jettySize=18;fontSize=11;strokeColor=#666666;strokeOpacity=100;strokeWidth=0.6;rounded=1;arcSize=24;edgeStyle=orthogonalEdgeStyle;startArrow=none;endArrow=block;endFill=1;exitX=0.9999999999999983;exitY=0.5;exitPerimeter=1;entryX=0.5;entryY=0;entryPerimeter=1;" edge="1" parent="1" source="4P0GgKVW7XmWCGAA4Uph-11" target="4P0GgKVW7XmWCGAA4Uph-27">
          <mxGeometry width="100" height="100" relative="1" as="geometry"/>
        </mxCell>
        <mxCell id="4P0GgKVW7XmWCGAA4Uph-32" value="" style="html=1;jettySize=18;fontSize=11;strokeColor=#666666;strokeOpacity=100;strokeWidth=0.6;rounded=1;arcSize=24;edgeStyle=orthogonalEdgeStyle;startArrow=none;endArrow=block;endFill=1;exitX=0;exitY=0.5;exitPerimeter=1;entryX=1;entryY=0.5;entryPerimeter=1;" edge="1" parent="1" source="4P0GgKVW7XmWCGAA4Uph-5" target="4P0GgKVW7XmWCGAA4Uph-28">
          <mxGeometry width="100" height="100" relative="1" as="geometry"/>
        </mxCell>
        <mxCell id="4P0GgKVW7XmWCGAA4Uph-33" value="" style="html=1;jettySize=18;fontSize=11;strokeColor=#666666;strokeOpacity=100;strokeWidth=0.6;rounded=1;arcSize=24;edgeStyle=orthogonalEdgeStyle;startArrow=none;endArrow=block;endFill=1;exitX=1;exitY=0.5;exitPerimeter=1;entryX=0;entryY=0.5;entryPerimeter=1;" edge="1" parent="1" source="4P0GgKVW7XmWCGAA4Uph-27" target="4P0GgKVW7XmWCGAA4Uph-29">
          <mxGeometry width="100" height="100" relative="1" as="geometry"/>
        </mxCell>
        <mxCell id="4P0GgKVW7XmWCGAA4Uph-34" value="ELB" style="html=1;whiteSpace=wrap;shape=mxgraph.aws4.resourceIcon;resIcon=mxgraph.aws4.elastic_load_balancing;verticalLabelPosition=bottom;align=center;verticalAlign=top;strokeColor=#ffffff;fontSize=11;spacing=0;strokeOpacity=100;fillColor=#d86613;strokeWidth=1.2;" vertex="1" parent="1">
          <mxGeometry x="543" y="378" width="42" height="42" as="geometry"/>
        </mxCell>
        <mxCell id="4P0GgKVW7XmWCGAA4Uph-35" value="" style="html=1;jettySize=18;fontSize=11;strokeColor=#666666;strokeOpacity=100;strokeWidth=0.6;rounded=1;arcSize=24;edgeStyle=orthogonalEdgeStyle;startArrow=none;endArrow=block;endFill=1;exitX=0.5;exitY=1;exitPerimeter=1;entryX=0;entryY=0.49999999999999917;entryPerimeter=1;" edge="1" parent="1" source="4P0GgKVW7XmWCGAA4Uph-28" target="4P0GgKVW7XmWCGAA4Uph-34">
          <mxGeometry width="100" height="100" relative="1" as="geometry"/>
        </mxCell>
        <mxCell id="4P0GgKVW7XmWCGAA4Uph-36" value="" style="html=1;jettySize=18;fontSize=11;strokeColor=#666666;strokeOpacity=100;strokeWidth=0.6;rounded=1;arcSize=24;edgeStyle=orthogonalEdgeStyle;startArrow=none;endArrow=block;endFill=1;exitX=0.5;exitY=1;exitPerimeter=1;entryX=0.9999999999999983;entryY=0.49999999999999917;entryPerimeter=1;" edge="1" parent="1" source="4P0GgKVW7XmWCGAA4Uph-29" target="4P0GgKVW7XmWCGAA4Uph-34">
          <mxGeometry width="100" height="100" relative="1" as="geometry"/>
        </mxCell>
        <mxCell id="4P0GgKVW7XmWCGAA4Uph-37" value="" style="html=1;jettySize=18;fontSize=11;strokeColor=#666666;strokeOpacity=100;strokeWidth=0.6;rounded=1;arcSize=24;edgeStyle=orthogonalEdgeStyle;startArrow=none;endArrow=block;endFill=1;exitX=0.49999999999999917;exitY=0.9999999999999983;exitPerimeter=1;entryX=0.5015066197898704;entryY=0;entryPerimeter=1;" edge="1" parent="1" source="4P0GgKVW7XmWCGAA4Uph-34" target="4P0GgKVW7XmWCGAA4Uph-12">
          <mxGeometry width="100" height="100" relative="1" as="geometry"/>
        </mxCell>
        <mxCell id="4P0GgKVW7XmWCGAA4Uph-38" value="Auto Scaling Group" style="html=1;whiteSpace=wrap;shape=mxgraph.aws4.groupCenter;grIcon=mxgraph.aws4.group_auto_scaling_group;grStroke=1;verticalAlign=top;fillColor=none;fillOpacity=100;fontColor=#D75F17;spacingTop=25;fontSize=11;spacing=0;strokeColor=#d86613;strokeOpacity=100;strokeWidth=1.2;" vertex="1" parent="1">
          <mxGeometry x="252" y="456" width="624" height="108" as="geometry"/>
        </mxCell>
      </root>
    </mxGraphModel>
  </diagram>
  <diagram id="OmynXbFORDOkbA6GmS9q" name="Page-2">
    <mxGraphModel dx="946" dy="535" grid="1" gridSize="10" guides="1" tooltips="1" connect="1" arrows="1" fold="1" page="1" pageScale="1" pageWidth="827" pageHeight="1169" math="0" shadow="0">
      <root>
        <mxCell id="Hji5cvBM2k3wOwaNork3-0"/>
        <mxCell id="Hji5cvBM2k3wOwaNork3-1" parent="Hji5cvBM2k3wOwaNork3-0"/>
        <mxCell id="xUdxgYJqyFcKr5hTfbhT-1" value="   Namespace-1" style="html=1;whiteSpace=wrap;fontSize=11;spacing=0;strokeColor=#666666;strokeOpacity=100;fillOpacity=0;rounded=1;absoluteArcSize=1;arcSize=2.4;fillColor=#000000;dashed=1;dashPattern=1 4;strokeWidth=1.7999999999999998;" vertex="1" parent="Hji5cvBM2k3wOwaNork3-1">
          <mxGeometry x="658" y="452" width="252" height="96" as="geometry"/>
        </mxCell>
        <mxCell id="Hji5cvBM2k3wOwaNork3-121" value="Auto Scaling" style="html=1;whiteSpace=wrap;shape=mxgraph.aws4.groupCenter;grIcon=mxgraph.aws4.group_auto_scaling_group;grStroke=1;verticalAlign=top;fillColor=none;fillOpacity=100;fontColor=#D75F17;spacingTop=25;fontSize=11;spacing=0;strokeColor=#d86613;strokeOpacity=100;strokeWidth=1.2;" vertex="1" parent="Hji5cvBM2k3wOwaNork3-1">
          <mxGeometry x="370" y="467" width="408" height="71" as="geometry"/>
        </mxCell>
        <mxCell id="Hji5cvBM2k3wOwaNork3-76" value="Private Subnet 1 10.0.0.0/19" style="html=1;whiteSpace=wrap;shape=mxgraph.aws4.group;grIcon=mxgraph.aws4.group_security_group;grStroke=0;verticalAlign=top;align=left;spacingLeft=30;fillOpacity=100;fillColor=#E0EFF6;strokeColor=#0E82B8;fontColor=#0E82B8;fontSize=11;spacing=0;strokeOpacity=100;strokeWidth=0;" vertex="1" parent="Hji5cvBM2k3wOwaNork3-1">
          <mxGeometry x="190" y="394" width="312" height="348" as="geometry"/>
        </mxCell>
        <mxCell id="Hji5cvBM2k3wOwaNork3-77" value="AWS" style="html=1;whiteSpace=wrap;shape=mxgraph.aws4.group;grIcon=mxgraph.aws4.group_aws_cloud_alt;verticalAlign=top;align=left;spacingLeft=30;fillColor=none;fillOpacity=100;fontSize=11;spacing=0;strokeColor=#232f3e;strokeOpacity=100;strokeWidth=1.2;" vertex="1" parent="Hji5cvBM2k3wOwaNork3-1">
          <mxGeometry x="58" y="118" width="960" height="660" as="geometry"/>
        </mxCell>
        <mxCell id="Hji5cvBM2k3wOwaNork3-79" value="Public Subnet 1 10.0.128.0/20" style="html=1;whiteSpace=wrap;shape=mxgraph.aws4.group;grIcon=mxgraph.aws4.group_security_group;grStroke=0;verticalAlign=top;align=left;spacingLeft=30;fillOpacity=100;fillColor=#E4EFE3;strokeColor=#2C8723;fontColor=#2C8723;fontSize=11;spacing=0;strokeOpacity=100;strokeWidth=0;" vertex="1" parent="Hji5cvBM2k3wOwaNork3-1">
          <mxGeometry x="190" y="202" width="312" height="180" as="geometry"/>
        </mxCell>
        <mxCell id="Hji5cvBM2k3wOwaNork3-80" value="Bastion Host" style="html=1;whiteSpace=wrap;shape=mxgraph.aws4.instance2;labelPosition=center;verticalLabelPosition=bottom;align=center;verticalAlign=top;strokeColor=none;fontSize=11;spacing=0;strokeOpacity=100;fillColor=#d86613;strokeWidth=1.2;" vertex="1" parent="Hji5cvBM2k3wOwaNork3-1">
          <mxGeometry x="418" y="297" width="48" height="48" as="geometry"/>
        </mxCell>
        <mxCell id="Hji5cvBM2k3wOwaNork3-81" value="" style="html=1;whiteSpace=wrap;fontSize=11;spacing=0;strokeOpacity=100;fillColor=#326ce5;strokeWidth=1.2;" vertex="1" parent="Hji5cvBM2k3wOwaNork3-1">
          <mxGeometry x="319" y="682" width="54" height="54" as="geometry"/>
        </mxCell>
        <mxCell id="Hji5cvBM2k3wOwaNork3-82" value="Availability Zone B" style="html=1;whiteSpace=wrap;verticalAlign=top;fillColor=none;fillOpacity=100;dashed=1;dashPattern=5 5;fontColor=#0E82B8;fontSize=11;spacing=0;strokeColor=#147eba;strokeOpacity=100;strokeWidth=1.2;" vertex="1" parent="Hji5cvBM2k3wOwaNork3-1">
          <mxGeometry x="634" y="142" width="336" height="624" as="geometry"/>
        </mxCell>
        <mxCell id="Hji5cvBM2k3wOwaNork3-83" value="Availability Zone A" style="html=1;whiteSpace=wrap;verticalAlign=top;fillColor=none;fillOpacity=100;dashed=1;dashPattern=5 5;fontColor=#0E82B8;fontSize=11;spacing=0;strokeColor=#147eba;strokeOpacity=100;strokeWidth=1.2;" vertex="1" parent="Hji5cvBM2k3wOwaNork3-1">
          <mxGeometry x="178" y="142" width="336" height="624" as="geometry"/>
        </mxCell>
        <mxCell id="Hji5cvBM2k3wOwaNork3-84" value="   Namespace-1" style="html=1;whiteSpace=wrap;fontSize=11;spacing=0;strokeColor=#666666;strokeOpacity=100;fillOpacity=0;rounded=1;absoluteArcSize=1;arcSize=2.4;fillColor=#000000;dashed=1;dashPattern=1 4;strokeWidth=1.7999999999999998;" vertex="1" parent="Hji5cvBM2k3wOwaNork3-1">
          <mxGeometry x="238" y="454" width="252" height="96" as="geometry"/>
        </mxCell>
        <mxCell id="Hji5cvBM2k3wOwaNork3-87" value="" style="html=1;jettySize=18;fontSize=11;strokeColor=#666666;strokeOpacity=100;strokeWidth=0.6;rounded=1;arcSize=24;edgeStyle=orthogonalEdgeStyle;startArrow=none;endArrow=none;exitX=0.026348055293196802;exitY=0.5;exitPerimeter=1;entryX=0.026348051948051912;entryY=0.5;entryPerimeter=1;" edge="1" parent="Hji5cvBM2k3wOwaNork3-1" source="Hji5cvBM2k3wOwaNork3-81">
          <mxGeometry width="100" height="100" relative="1" as="geometry">
            <mxPoint x="222" y="454" as="targetPoint"/>
          </mxGeometry>
        </mxCell>
        <mxCell id="Hji5cvBM2k3wOwaNork3-88" value="Public Subnet 2 10.0.144.0/20" style="html=1;whiteSpace=wrap;shape=mxgraph.aws4.group;grIcon=mxgraph.aws4.group_security_group;grStroke=0;verticalAlign=top;align=left;spacingLeft=30;fillOpacity=100;fillColor=#E4EFE3;strokeColor=#2C8723;fontColor=#2C8723;fontSize=11;spacing=0;strokeOpacity=100;strokeWidth=0;" vertex="1" parent="Hji5cvBM2k3wOwaNork3-1">
          <mxGeometry x="646" y="202" width="312" height="180" as="geometry"/>
        </mxCell>
        <mxCell id="Hji5cvBM2k3wOwaNork3-89" value="Bastion Host" style="html=1;whiteSpace=wrap;shape=mxgraph.aws4.instance2;labelPosition=center;verticalLabelPosition=bottom;align=center;verticalAlign=top;strokeColor=none;fontSize=11;spacing=0;strokeOpacity=100;fillColor=#d86613;strokeWidth=1.2;" vertex="1" parent="Hji5cvBM2k3wOwaNork3-1">
          <mxGeometry x="676" y="297" width="48" height="48" as="geometry"/>
        </mxCell>
        <mxCell id="Hji5cvBM2k3wOwaNork3-90" value="Namespace-1	" style="html=1;whiteSpace=wrap;fontSize=11;spacing=0;strokeColor=#666666;strokeOpacity=100;fillOpacity=0;rounded=1;absoluteArcSize=1;arcSize=2.4;fillColor=#000000;dashed=1;dashPattern=1 4;strokeWidth=1.7999999999999998;" vertex="1" parent="Hji5cvBM2k3wOwaNork3-1">
          <mxGeometry x="658" y="454" width="252" height="96" as="geometry"/>
        </mxCell>
        <mxCell id="Hji5cvBM2k3wOwaNork3-91" value="Private Subnet 2 10.0.32.0/19" style="html=1;whiteSpace=wrap;shape=mxgraph.aws4.group;grIcon=mxgraph.aws4.group_security_group;grStroke=0;verticalAlign=top;align=left;spacingLeft=30;fillOpacity=100;fillColor=#E0EFF6;strokeColor=#0E82B8;fontColor=#0E82B8;fontSize=11;spacing=0;strokeOpacity=100;strokeWidth=0;" vertex="1" parent="Hji5cvBM2k3wOwaNork3-1">
          <mxGeometry x="646" y="394" width="312" height="348" as="geometry"/>
        </mxCell>
        <mxCell id="Hji5cvBM2k3wOwaNork3-92" value="" style="html=1;whiteSpace=wrap;fontSize=11;spacing=0;strokeOpacity=100;fillColor=#326ce5;strokeWidth=1.2;" vertex="1" parent="Hji5cvBM2k3wOwaNork3-1">
          <mxGeometry x="775" y="682" width="54" height="54" as="geometry"/>
        </mxCell>
        <mxCell id="Hji5cvBM2k3wOwaNork3-96" value="Network ELB" style="html=1;whiteSpace=wrap;shape=mxgraph.aws4.resourceIcon;resIcon=mxgraph.aws4.elastic_load_balancing;verticalLabelPosition=bottom;align=center;verticalAlign=top;strokeColor=#ffffff;fontSize=11;spacing=0;strokeOpacity=100;fillColor=#d86613;strokeWidth=1.2;" vertex="1" parent="Hji5cvBM2k3wOwaNork3-1">
          <mxGeometry x="550" y="215" width="48" height="48" as="geometry"/>
        </mxCell>
        <mxCell id="Hji5cvBM2k3wOwaNork3-97" value="ELB" style="html=1;whiteSpace=wrap;shape=mxgraph.aws4.resourceIcon;resIcon=mxgraph.aws4.elastic_load_balancing;verticalLabelPosition=bottom;align=center;verticalAlign=top;strokeColor=#ffffff;fontSize=11;spacing=0;strokeOpacity=100;fillColor=#d86613;strokeWidth=1.2;" vertex="1" parent="Hji5cvBM2k3wOwaNork3-1">
          <mxGeometry x="550" y="394" width="48" height="48" as="geometry"/>
        </mxCell>
        <mxCell id="Hji5cvBM2k3wOwaNork3-98" value="" style="html=1;jettySize=18;fontSize=11;strokeColor=#666666;strokeOpacity=100;strokeWidth=0.6;rounded=1;arcSize=24;edgeStyle=orthogonalEdgeStyle;startArrow=none;endArrow=none;exitX=0.5;exitY=1;exitPerimeter=1;entryX=0.9736519501802382;entryY=0.5;entryPerimeter=1;" edge="1" parent="Hji5cvBM2k3wOwaNork3-1" source="Hji5cvBM2k3wOwaNork3-97" target="Hji5cvBM2k3wOwaNork3-81">
          <mxGeometry width="100" height="100" relative="1" as="geometry"/>
        </mxCell>
        <mxCell id="Hji5cvBM2k3wOwaNork3-99" value="" style="html=1;jettySize=18;fontSize=11;strokeColor=#666666;strokeOpacity=100;strokeWidth=0.6;rounded=1;arcSize=24;edgeStyle=orthogonalEdgeStyle;startArrow=none;endArrow=none;exitX=0.9736519468331426;exitY=0.5;exitPerimeter=1;entryX=0.9736519480519481;entryY=0.5;entryPerimeter=1;" edge="1" parent="Hji5cvBM2k3wOwaNork3-1" source="Hji5cvBM2k3wOwaNork3-92">
          <mxGeometry width="100" height="100" relative="1" as="geometry">
            <mxPoint x="927" y="454" as="targetPoint"/>
          </mxGeometry>
        </mxCell>
        <mxCell id="Hji5cvBM2k3wOwaNork3-100" value="" style="html=1;jettySize=18;fontSize=11;strokeColor=#666666;strokeOpacity=100;strokeWidth=0.6;rounded=1;arcSize=24;edgeStyle=orthogonalEdgeStyle;startArrow=none;endArrow=none;exitX=0.5;exitY=1;exitPerimeter=1;entryX=0.02634804820798754;entryY=0.5;entryPerimeter=1;" edge="1" parent="Hji5cvBM2k3wOwaNork3-1" source="Hji5cvBM2k3wOwaNork3-97" target="Hji5cvBM2k3wOwaNork3-92">
          <mxGeometry width="100" height="100" relative="1" as="geometry"/>
        </mxCell>
        <mxCell id="Hji5cvBM2k3wOwaNork3-101" value="NAT gateway" style="html=1;whiteSpace=wrap;shape=mxgraph.aws4.nat_gateway;labelPosition=center;verticalLabelPosition=bottom;align=center;verticalAlign=top;strokeColor=none;fontSize=11;spacing=0;strokeOpacity=100;fillColor=#693cc5;strokeWidth=1.2;" vertex="1" parent="Hji5cvBM2k3wOwaNork3-1">
          <mxGeometry x="226" y="297" width="48" height="48" as="geometry"/>
        </mxCell>
        <mxCell id="Hji5cvBM2k3wOwaNork3-102" value="NAT gateway" style="html=1;whiteSpace=wrap;shape=mxgraph.aws4.nat_gateway;labelPosition=center;verticalLabelPosition=bottom;align=center;verticalAlign=top;strokeColor=none;fontSize=11;spacing=0;strokeOpacity=100;fillColor=#693cc5;strokeWidth=1.2;" vertex="1" parent="Hji5cvBM2k3wOwaNork3-1">
          <mxGeometry x="874" y="297" width="48" height="48" as="geometry"/>
        </mxCell>
        <mxCell id="Hji5cvBM2k3wOwaNork3-103" value="" style="html=1;jettySize=18;fontSize=11;strokeColor=#666666;strokeOpacity=100;strokeWidth=0.6;rounded=1;arcSize=24;edgeStyle=orthogonalEdgeStyle;startArrow=none;endArrow=none;exitX=0.5;exitY=1;exitPerimeter=1;entryX=0.5;entryY=0;entryPerimeter=1;" edge="1" parent="Hji5cvBM2k3wOwaNork3-1" source="Hji5cvBM2k3wOwaNork3-105" target="Hji5cvBM2k3wOwaNork3-96">
          <mxGeometry width="100" height="100" relative="1" as="geometry"/>
        </mxCell>
        <mxCell id="Hji5cvBM2k3wOwaNork3-104" value="Auto Scaling" style="html=1;whiteSpace=wrap;shape=mxgraph.aws4.groupCenter;grIcon=mxgraph.aws4.group_auto_scaling_group;grStroke=1;verticalAlign=top;fillColor=none;fillOpacity=100;fontColor=#D75F17;spacingTop=25;fontSize=11;spacing=0;strokeColor=#d86613;strokeOpacity=100;strokeWidth=1.2;" vertex="1" parent="Hji5cvBM2k3wOwaNork3-1">
          <mxGeometry x="388" y="288" width="372" height="81" as="geometry"/>
        </mxCell>
        <mxCell id="Hji5cvBM2k3wOwaNork3-105" value="IGW" style="html=1;whiteSpace=wrap;shape=mxgraph.aws4.internet_gateway;labelPosition=center;verticalLabelPosition=bottom;align=center;verticalAlign=top;strokeColor=none;fontSize=11;spacing=0;strokeOpacity=100;fillColor=#693cc5;strokeWidth=1.2;" vertex="1" parent="Hji5cvBM2k3wOwaNork3-1">
          <mxGeometry x="550" y="142" width="48" height="48" as="geometry"/>
        </mxCell>
        <mxCell id="Hji5cvBM2k3wOwaNork3-106" value="" style="html=1;jettySize=18;fontSize=11;strokeColor=#666666;strokeOpacity=100;strokeWidth=0.6;rounded=1;arcSize=24;edgeStyle=orthogonalEdgeStyle;startArrow=none;endArrow=none;exitX=0;exitY=0.5;exitPerimeter=1;entryX=0.5;entryY=0;entryPerimeter=1;" edge="1" parent="Hji5cvBM2k3wOwaNork3-1" source="Hji5cvBM2k3wOwaNork3-96" target="Hji5cvBM2k3wOwaNork3-80">
          <mxGeometry width="100" height="100" relative="1" as="geometry"/>
        </mxCell>
        <mxCell id="Hji5cvBM2k3wOwaNork3-107" value="" style="html=1;jettySize=18;fontSize=11;strokeColor=#666666;strokeOpacity=100;strokeWidth=0.6;rounded=1;arcSize=24;edgeStyle=orthogonalEdgeStyle;startArrow=none;endArrow=none;exitX=1;exitY=0.5;exitPerimeter=1;entryX=0.5;entryY=0;entryPerimeter=1;" edge="1" parent="Hji5cvBM2k3wOwaNork3-1" source="Hji5cvBM2k3wOwaNork3-96" target="Hji5cvBM2k3wOwaNork3-89">
          <mxGeometry width="100" height="100" relative="1" as="geometry"/>
        </mxCell>
        <mxCell id="Hji5cvBM2k3wOwaNork3-108" value="" style="html=1;jettySize=18;fontSize=11;strokeColor=#666666;strokeOpacity=100;strokeWidth=0.6;rounded=1;arcSize=24;edgeStyle=orthogonalEdgeStyle;startArrow=none;endArrow=none;exitX=1;exitY=0.5;exitPerimeter=1;entryX=0;entryY=0.5;entryPerimeter=1;" edge="1" parent="Hji5cvBM2k3wOwaNork3-1" source="Hji5cvBM2k3wOwaNork3-89" target="Hji5cvBM2k3wOwaNork3-102">
          <mxGeometry width="100" height="100" relative="1" as="geometry"/>
        </mxCell>
        <mxCell id="Hji5cvBM2k3wOwaNork3-109" value="" style="html=1;jettySize=18;fontSize=11;strokeColor=#666666;strokeOpacity=100;strokeWidth=0.6;rounded=1;arcSize=24;edgeStyle=orthogonalEdgeStyle;startArrow=none;endArrow=none;exitX=0;exitY=0.5;exitPerimeter=1;entryX=1;entryY=0.5;entryPerimeter=1;" edge="1" parent="Hji5cvBM2k3wOwaNork3-1" source="Hji5cvBM2k3wOwaNork3-80" target="Hji5cvBM2k3wOwaNork3-101">
          <mxGeometry width="100" height="100" relative="1" as="geometry"/>
        </mxCell>
        <mxCell id="Hji5cvBM2k3wOwaNork3-110" value="{{documentName}}" style="html=1;whiteSpace=wrap;;fontSize=16;fontColor=#b2b2b2;fontStyle=1;align=center;spacingLeft=5.628;spacingRight=9.38;spacingTop=2.68;spacing=4;strokeOpacity=0;fillOpacity=0;rounded=1;absoluteArcSize=1;arcSize=9.6;fillColor=#ffffff;strokeWidth=1.2;" vertex="1" parent="Hji5cvBM2k3wOwaNork3-1">
          <mxGeometry x="377" y="58" width="322" height="25" as="geometry"/>
        </mxCell>
        <mxCell id="Hji5cvBM2k3wOwaNork3-111" value="" style="html=1;jettySize=18;fontSize=11;strokeColor=#b2b2b2;strokeOpacity=100;strokeWidth=1.2;rounded=1;arcSize=16;startArrow=none;endArrow=none;exitX=0.1394477312454352;exitY=0.9673824779331754;exitPerimeter=1;entryX=0.8679298284896417;entryY=0.9673824779331754;entryPerimeter=1;" edge="1" parent="Hji5cvBM2k3wOwaNork3-1" source="Hji5cvBM2k3wOwaNork3-110" target="Hji5cvBM2k3wOwaNork3-110">
          <mxGeometry width="100" height="100" relative="1" as="geometry"/>
        </mxCell>
        <mxCell id="Hji5cvBM2k3wOwaNork3-112" value="Text" style="text;html=1;resizable=0;labelBackgroundColor=#ffffff;align=center;verticalAlign=middle;" vertex="1" parent="Hji5cvBM2k3wOwaNork3-111">
          <mxGeometry x="-1" relative="1" as="geometry"/>
        </mxCell>
        <mxCell id="Hji5cvBM2k3wOwaNork3-113" value="{{creatorName}}  |  {{date:MMMM d, yyyy}}" style="html=1;whiteSpace=wrap;;fontSize=9;fontColor=#b2b2b2;align=center;spacingLeft=5.628;spacingRight=9.38;spacingTop=2.68;spacing=4;strokeOpacity=0;fillOpacity=0;rounded=1;absoluteArcSize=1;arcSize=9.6;fillColor=#ffffff;strokeWidth=1.2;" vertex="1" parent="Hji5cvBM2k3wOwaNork3-1">
          <mxGeometry x="377" y="83" width="322" height="12" as="geometry"/>
        </mxCell>
        <mxCell id="Hji5cvBM2k3wOwaNork3-114" value="" style="html=1;jettySize=18;fontSize=11;strokeColor=#666666;strokeOpacity=100;strokeWidth=0.6;rounded=1;arcSize=24;edgeStyle=orthogonalEdgeStyle;startArrow=none;endArrow=none;exitX=0.5;exitY=1;exitPerimeter=1;entryX=0.5;entryY=0;entryPerimeter=1;" edge="1" parent="Hji5cvBM2k3wOwaNork3-1" source="Hji5cvBM2k3wOwaNork3-101" target="Hji5cvBM2k3wOwaNork3-97">
          <mxGeometry width="100" height="100" relative="1" as="geometry"/>
        </mxCell>
        <mxCell id="Hji5cvBM2k3wOwaNork3-115" value="" style="html=1;jettySize=18;fontSize=11;strokeColor=#666666;strokeOpacity=100;strokeWidth=0.6;rounded=1;arcSize=24;edgeStyle=orthogonalEdgeStyle;startArrow=none;endArrow=none;exitX=0.5;exitY=1;exitPerimeter=1;entryX=0.5;entryY=0;entryPerimeter=1;" edge="1" parent="Hji5cvBM2k3wOwaNork3-1" source="Hji5cvBM2k3wOwaNork3-102" target="Hji5cvBM2k3wOwaNork3-97">
          <mxGeometry width="100" height="100" relative="1" as="geometry"/>
        </mxCell>
        <mxCell id="Hji5cvBM2k3wOwaNork3-119" value="" style="html=1;jettySize=18;fontSize=11;strokeColor=#666666;strokeOpacity=100;dashed=1;strokeWidth=0.6;rounded=1;arcSize=24;edgeStyle=orthogonalEdgeStyle;startArrow=none;endArrow=none;exitX=0.02634805194805198;exitY=0.5;exitPerimeter=1;entryX=1.0014705882352941;entryY=0.46062755332676175;entryPerimeter=1;" edge="1" parent="Hji5cvBM2k3wOwaNork3-1" target="Hji5cvBM2k3wOwaNork3-121">
          <mxGeometry width="100" height="100" relative="1" as="geometry">
            <mxPoint x="832" y="500" as="sourcePoint"/>
          </mxGeometry>
        </mxCell>
        <mxCell id="Hji5cvBM2k3wOwaNork3-122" value="   Namespace-2" style="html=1;whiteSpace=wrap;fontSize=11;spacing=0;strokeColor=#666666;strokeOpacity=100;fillOpacity=0;rounded=1;absoluteArcSize=1;arcSize=2.4;fillColor=#000000;dashed=1;dashPattern=1 4;strokeWidth=1.7999999999999998;" vertex="1" parent="Hji5cvBM2k3wOwaNork3-1">
          <mxGeometry x="238" y="580" width="252" height="96" as="geometry"/>
        </mxCell>
        <mxCell id="Hji5cvBM2k3wOwaNork3-124" value="" style="html=1;whiteSpace=wrap;fontSize=11;spacing=0;strokeOpacity=100;fillColor=#326ce5;strokeWidth=1.2;" vertex="1" parent="Hji5cvBM2k3wOwaNork3-1">
          <mxGeometry x="382" y="607" width="42" height="42" as="geometry"/>
        </mxCell>
        <mxCell id="Hji5cvBM2k3wOwaNork3-125" value="Namespace-2	" style="html=1;whiteSpace=wrap;fontSize=11;spacing=0;strokeColor=#666666;strokeOpacity=100;fillOpacity=0;rounded=1;absoluteArcSize=1;arcSize=2.4;fillColor=#000000;dashed=1;dashPattern=1 4;strokeWidth=1.7999999999999998;" vertex="1" parent="Hji5cvBM2k3wOwaNork3-1">
          <mxGeometry x="658" y="580" width="252" height="96" as="geometry"/>
        </mxCell>
        <mxCell id="Hji5cvBM2k3wOwaNork3-127" value="" style="html=1;whiteSpace=wrap;fontSize=11;spacing=0;strokeOpacity=100;fillColor=#326ce5;strokeWidth=1.2;" vertex="1" parent="Hji5cvBM2k3wOwaNork3-1">
          <mxGeometry x="832" y="604" width="42" height="42" as="geometry"/>
        </mxCell>
        <mxCell id="Hji5cvBM2k3wOwaNork3-128" value="" style="html=1;whiteSpace=wrap;fontSize=11;spacing=0;strokeOpacity=100;fillColor=#326ce5;strokeWidth=1.2;" vertex="1" parent="Hji5cvBM2k3wOwaNork3-1">
          <mxGeometry x="274" y="607" width="42" height="42" as="geometry"/>
        </mxCell>
        <mxCell id="Hji5cvBM2k3wOwaNork3-129" value="" style="html=1;whiteSpace=wrap;fontSize=11;spacing=0;strokeOpacity=100;fillColor=#326ce5;strokeWidth=1.2;" vertex="1" parent="Hji5cvBM2k3wOwaNork3-1">
          <mxGeometry x="435" y="607" width="42" height="42" as="geometry"/>
        </mxCell>
        <mxCell id="Hji5cvBM2k3wOwaNork3-130" value="" style="html=1;jettySize=18;fontSize=11;strokeColor=#666666;strokeOpacity=100;dashed=1;strokeWidth=0.6;rounded=1;arcSize=24;edgeStyle=orthogonalEdgeStyle;startArrow=none;endArrow=none;exitX=0.973651948051948;exitY=0.5;exitPerimeter=1;entryX=-0.0014705882352941176;entryY=0.5009076730668808;entryPerimeter=1;" edge="1" parent="Hji5cvBM2k3wOwaNork3-1" source="Hji5cvBM2k3wOwaNork3-128" target="Hji5cvBM2k3wOwaNork3-134">
          <mxGeometry width="100" height="100" relative="1" as="geometry"/>
        </mxCell>
        <mxCell id="Hji5cvBM2k3wOwaNork3-131" value="" style="html=1;whiteSpace=wrap;fontSize=11;spacing=0;strokeOpacity=100;fillColor=#326ce5;strokeWidth=1.2;" vertex="1" parent="Hji5cvBM2k3wOwaNork3-1">
          <mxGeometry x="670" y="604" width="42" height="42" as="geometry"/>
        </mxCell>
        <mxCell id="Hji5cvBM2k3wOwaNork3-132" value="" style="html=1;jettySize=18;fontSize=11;strokeColor=#666666;strokeOpacity=100;dashed=1;strokeWidth=0.6;rounded=1;arcSize=24;edgeStyle=orthogonalEdgeStyle;startArrow=none;endArrow=none;exitX=0.02634805194805198;exitY=0.5;exitPerimeter=1;entryX=1.0014705882352941;entryY=0.46062755332676175;entryPerimeter=1;" edge="1" parent="Hji5cvBM2k3wOwaNork3-1" source="Hji5cvBM2k3wOwaNork3-127" target="Hji5cvBM2k3wOwaNork3-134">
          <mxGeometry width="100" height="100" relative="1" as="geometry"/>
        </mxCell>
        <mxCell id="Hji5cvBM2k3wOwaNork3-133" value="" style="html=1;whiteSpace=wrap;fontSize=11;spacing=0;strokeOpacity=100;fillColor=#326ce5;strokeWidth=1.2;" vertex="1" parent="Hji5cvBM2k3wOwaNork3-1">
          <mxGeometry x="724" y="604" width="42" height="42" as="geometry"/>
        </mxCell>
        <mxCell id="Hji5cvBM2k3wOwaNork3-134" value="Auto Scaling" style="html=1;whiteSpace=wrap;shape=mxgraph.aws4.groupCenter;grIcon=mxgraph.aws4.group_auto_scaling_group;grStroke=1;verticalAlign=top;fillColor=none;fillOpacity=100;fontColor=#D75F17;spacingTop=25;fontSize=11;spacing=0;strokeColor=#d86613;strokeOpacity=100;strokeWidth=1.2;" vertex="1" parent="Hji5cvBM2k3wOwaNork3-1">
          <mxGeometry x="370" y="593" width="408" height="71" as="geometry"/>
        </mxCell>
        <mxCell id="Hji5cvBM2k3wOwaNork3-135" value="" style="html=1;jettySize=18;fontSize=11;strokeColor=#666666;strokeOpacity=100;strokeWidth=0.6;rounded=1;arcSize=24;edgeStyle=orthogonalEdgeStyle;startArrow=none;endArrow=none;exitX=0.9736519468331426;exitY=0.5;exitPerimeter=1;entryX=0.9736519480519481;entryY=0.5;entryPerimeter=1;" edge="1" parent="Hji5cvBM2k3wOwaNork3-1" source="Hji5cvBM2k3wOwaNork3-92">
          <mxGeometry width="100" height="100" relative="1" as="geometry">
            <mxPoint x="927" y="580" as="targetPoint"/>
          </mxGeometry>
        </mxCell>
        <mxCell id="Hji5cvBM2k3wOwaNork3-136" value="" style="html=1;jettySize=18;fontSize=11;strokeColor=#666666;strokeOpacity=100;strokeWidth=0.6;rounded=1;arcSize=24;edgeStyle=orthogonalEdgeStyle;startArrow=none;endArrow=block;endFill=1;exitX=0.026348055293196566;exitY=0.5000000000000012;exitPerimeter=1;entryX=0.026348051948051912;entryY=0.5;entryPerimeter=1;" edge="1" parent="Hji5cvBM2k3wOwaNork3-1" source="Hji5cvBM2k3wOwaNork3-81">
          <mxGeometry width="100" height="100" relative="1" as="geometry">
            <mxPoint x="222" y="580" as="targetPoint"/>
          </mxGeometry>
        </mxCell>
        <mxCell id="xUdxgYJqyFcKr5hTfbhT-0" value="" style="html=1;dashed=0;whitespace=wrap;fillColor=#2875E2;strokeColor=#ffffff;points=[[0.005,0.63,0],[0.1,0.2,0],[0.9,0.2,0],[0.5,0,0],[0.995,0.63,0],[0.72,0.99,0],[0.5,1,0],[0.28,0.99,0]];shape=mxgraph.kubernetes.icon;prIcon=node" vertex="1" parent="Hji5cvBM2k3wOwaNork3-1">
          <mxGeometry x="208" y="429.5" width="50" height="48" as="geometry"/>
        </mxCell>
        <mxCell id="xUdxgYJqyFcKr5hTfbhT-2" value="" style="html=1;dashed=0;whitespace=wrap;fillColor=#2875E2;strokeColor=#ffffff;points=[[0.005,0.63,0],[0.1,0.2,0],[0.9,0.2,0],[0.5,0,0],[0.995,0.63,0],[0.72,0.99,0],[0.5,1,0],[0.28,0.99,0]];shape=mxgraph.kubernetes.icon;prIcon=node" vertex="1" parent="Hji5cvBM2k3wOwaNork3-1">
          <mxGeometry x="891" y="407" width="50" height="48" as="geometry"/>
        </mxCell>
        <mxCell id="xUdxgYJqyFcKr5hTfbhT-3" value="" style="html=1;dashed=0;whitespace=wrap;fillColor=#2875E2;strokeColor=#ffffff;points=[[0.005,0.63,0],[0.1,0.2,0],[0.9,0.2,0],[0.5,0,0],[0.995,0.63,0],[0.72,0.99,0],[0.5,1,0],[0.28,0.99,0]];shape=mxgraph.kubernetes.icon;prIcon=node" vertex="1" parent="Hji5cvBM2k3wOwaNork3-1">
          <mxGeometry x="208" y="556" width="50" height="48" as="geometry"/>
        </mxCell>
        <mxCell id="xUdxgYJqyFcKr5hTfbhT-4" value="" style="html=1;dashed=0;whitespace=wrap;fillColor=#2875E2;strokeColor=#ffffff;points=[[0.005,0.63,0],[0.1,0.2,0],[0.9,0.2,0],[0.5,0,0],[0.995,0.63,0],[0.72,0.99,0],[0.5,1,0],[0.28,0.99,0]];shape=mxgraph.kubernetes.icon;prIcon=node" vertex="1" parent="Hji5cvBM2k3wOwaNork3-1">
          <mxGeometry x="885" y="556" width="50" height="48" as="geometry"/>
        </mxCell>
        <mxCell id="xUdxgYJqyFcKr5hTfbhT-5" value="" style="html=1;dashed=0;whitespace=wrap;fillColor=#2875E2;strokeColor=#ffffff;points=[[0.005,0.63,0],[0.1,0.2,0],[0.9,0.2,0],[0.5,0,0],[0.995,0.63,0],[0.72,0.99,0],[0.5,1,0],[0.28,0.99,0]];shape=mxgraph.kubernetes.icon;prIcon=pod" vertex="1" parent="Hji5cvBM2k3wOwaNork3-1">
          <mxGeometry x="413" y="485" width="31" height="34" as="geometry"/>
        </mxCell>
        <mxCell id="xUdxgYJqyFcKr5hTfbhT-7" value="" style="html=1;dashed=0;whitespace=wrap;fillColor=#2875E2;strokeColor=#ffffff;points=[[0.005,0.63,0],[0.1,0.2,0],[0.9,0.2,0],[0.5,0,0],[0.995,0.63,0],[0.72,0.99,0],[0.5,1,0],[0.28,0.99,0]];shape=mxgraph.kubernetes.icon;prIcon=ns" vertex="1" parent="Hji5cvBM2k3wOwaNork3-1">
          <mxGeometry x="266" y="480" width="50" height="48" as="geometry"/>
        </mxCell>
        <mxCell id="xUdxgYJqyFcKr5hTfbhT-9" value="" style="html=1;dashed=0;whitespace=wrap;fillColor=#2875E2;strokeColor=#ffffff;points=[[0.005,0.63,0],[0.1,0.2,0],[0.9,0.2,0],[0.5,0,0],[0.995,0.63,0],[0.72,0.99,0],[0.5,1,0],[0.28,0.99,0]];shape=mxgraph.kubernetes.icon;prIcon=pod" vertex="1" parent="Hji5cvBM2k3wOwaNork3-1">
          <mxGeometry x="450.5" y="485" width="31" height="34" as="geometry"/>
        </mxCell>
        <mxCell id="xUdxgYJqyFcKr5hTfbhT-10" value="" style="html=1;dashed=0;whitespace=wrap;fillColor=#2875E2;strokeColor=#ffffff;points=[[0.005,0.63,0],[0.1,0.2,0],[0.9,0.2,0],[0.5,0,0],[0.995,0.63,0],[0.72,0.99,0],[0.5,1,0],[0.28,0.99,0]];shape=mxgraph.kubernetes.icon;prIcon=pod" vertex="1" parent="Hji5cvBM2k3wOwaNork3-1">
          <mxGeometry x="668" y="483" width="31" height="34" as="geometry"/>
        </mxCell>
        <mxCell id="xUdxgYJqyFcKr5hTfbhT-11" value="" style="html=1;dashed=0;whitespace=wrap;fillColor=#2875E2;strokeColor=#ffffff;points=[[0.005,0.63,0],[0.1,0.2,0],[0.9,0.2,0],[0.5,0,0],[0.995,0.63,0],[0.72,0.99,0],[0.5,1,0],[0.28,0.99,0]];shape=mxgraph.kubernetes.icon;prIcon=pod" vertex="1" parent="Hji5cvBM2k3wOwaNork3-1">
          <mxGeometry x="714" y="485" width="31" height="34" as="geometry"/>
        </mxCell>
        <mxCell id="xUdxgYJqyFcKr5hTfbhT-13" value="" style="html=1;dashed=0;whitespace=wrap;fillColor=#2875E2;strokeColor=#ffffff;points=[[0.005,0.63,0],[0.1,0.2,0],[0.9,0.2,0],[0.5,0,0],[0.995,0.63,0],[0.72,0.99,0],[0.5,1,0],[0.28,0.99,0]];shape=mxgraph.kubernetes.icon;prIcon=ns" vertex="1" parent="Hji5cvBM2k3wOwaNork3-1">
          <mxGeometry x="835" y="478" width="50" height="48" as="geometry"/>
        </mxCell>
        <mxCell id="Hji5cvBM2k3wOwaNork3-78" value="VPC 10.0.0.0/16" style="html=1;whiteSpace=wrap;shape=mxgraph.aws4.group;grIcon=mxgraph.aws4.group_vpc;verticalAlign=top;align=left;spacingLeft=30;fillColor=none;fillOpacity=100;fontColor=#2C8723;fontSize=11;spacing=0;strokeColor=#248814;strokeOpacity=100;strokeWidth=1.2;" vertex="1" parent="Hji5cvBM2k3wOwaNork3-1">
          <mxGeometry x="82" y="166" width="912" height="588" as="geometry"/>
        </mxCell>
      </root>
    </mxGraphModel>
  </diagram>
</mxfile>
